#!OML:ASF X:\für Bonn\!DataBase\2005_08_11_Bastian_Final\c3d\Bastian.ASF
:FULLY-SPECIFIED
:DEGREES
158
root -0.220734 17.0545 5.88234 178.042 -10.8066 -179.153
lowerback 12.5018 -2.70217 -1.99754
upperback 3.95794 -4.23037 -0.25825
thorax -2.72392 -2.26998 1.47367
lowerneck -11.2397 -6.61328 -3.5516
upperneck -4.40362 -9.28335 11.6377
head 1.34593 -4.78378 3.98182
rclavicle -1.3418e-014 1.98785e-015
rhumerus 70.4564 20.5094 -2.01113
rradius 39.5559
rwrist -49.9089
rhand -45.2701 -5.60357
rfingers 7.12502
rthumb -18.0436 -34.7866
lclavicle -1.3418e-014 1.98785e-015
lhumerus 68.5293 -19.074 -2.98988
lradius 32.0208
lwrist -1.19605
lhand -43.357 10.6936
lfingers 7.12502
lthumb -16.2021 40.0365
rfemur -14.4495 -5.42051 24.0957
rtibia 48.3607
rfoot -25.1985 -12.0459
rtoes 2.53167
lfemur -13.4589 -1.74192 -19.2833
ltibia 41.6693
lfoot -17.7099 -7.79647
ltoes -6.47776
159
root -0.226668 17.1331 5.86135 178.185 -10.9046 -179.17
lowerback 12.0533 -2.74661 -2.00378
upperback 3.89139 -4.26089 -0.234371
thorax -2.54603 -2.27964 1.47999
lowerneck -11.2254 -6.61615 -3.57853
upperneck -4.15708 -9.27763 11.5872
head 1.42356 -4.76312 3.96651
rclavicle 3.53837e-014 -1.19271e-015
rhumerus 70.6286 20.767 -1.5246
rradius 39.574
rwrist -50.6923
rhand -45.3064 -5.42993
rfingers 7.12502
rthumb -18.0784 -34.6098
lclavicle 3.53837e-014 -1.19271e-015
lhumerus 68.8257 -19.3483 -3.41839
lradius 31.9058
lwrist -0.895159
lhand -43.2738 10.9368
lfingers 7.12502
lthumb -16.122 40.2862
rfemur -13.7455 -4.83264 24.1249
rtibia 47.0192
rfoot -24.9124 -12.357
rtoes 3.24895
lfemur -12.5605 -1.88085 -19.3241
ltibia 39.8188
lfoot -17.024 -7.58517
ltoes -6.7982
160
root -0.232906 17.2031 5.84047 178.332 -10.9869 -179.187
lowerback 11.6005 -2.78537 -1.99887
upperback 3.82609 -4.28326 -0.214013
thorax -2.36532 -2.28548 1.47471
lowerneck -11.2035 -6.60512 -3.57577
upperneck -3.93268 -9.25555 11.5086
head 1.48758 -4.73657 3.93757
rclavicle -1.78906e-014 -8.34896e-015
rhumerus 70.818 20.9574 -0.930214
rradius 39.5969
rwrist -51.4873
rhand -45.3222 -5.33752
rfingers 7.12502
rthumb -18.0936 -34.5159
lclavicle -1.78906e-014 -8.34896e-015
lhumerus 69.1071 -19.6251 -3.69586
lradius 31.7641
lwrist -0.74856
lhand -43.1928 11.259
lfingers 7.12502
lthumb -16.044 40.6147
rfemur -13.1072 -4.17664 24.1771
rtibia 45.811
rfoot -24.6581 -12.8176
rtoes 3.50661
lfemur -11.7161 -1.99824 -19.3581
ltibia 38.0849
lfoot -16.3898 -7.41704
ltoes -6.94205
161
root -0.238631 17.2625 5.82042 178.475 -11.0829 -179.204
lowerback 11.1563 -2.83199 -1.99956
upperback 3.75786 -4.31749 -0.196809
thorax -2.19128 -2.29719 1.47114
lowerneck -11.1679 -6.59162 -3.55941
upperneck -3.71252 -9.23187 11.4252
head 1.54658 -4.71026 3.90518
rclavicle 2.8625e-014 -1.03368e-014
rhumerus 71.003 21.1173 -0.380001
rradius 39.5851
rwrist -52.1133
rhand -45.2981 -5.30423
rfingers 7.12502
rthumb -18.0705 -34.4848
lclavicle 2.8625e-014 -1.03368e-014
lhumerus 69.3459 -19.9081 -3.89947
lradius 31.6104
lwrist -0.708946
lhand -43.125 11.5845
lfingers 7.12502
lthumb -15.9788 40.9455
rfemur -12.5297 -3.45466 24.2545
rtibia 44.7492
rfoot -24.5396 -13.3613
rtoes 4.02183
lfemur -10.9322 -2.13259 -19.3892
ltibia 36.4852
lfoot -15.8261 -7.27166
ltoes -7.24568
162
root -0.244766 17.3119 5.79966 178.631 -11.1554 -179.223
lowerback 10.6743 -2.86958 -2.00161
upperback 3.70972 -4.34081 -0.179719
thorax -1.97563 -2.30501 1.46324
lowerneck -11.1804 -6.57793 -3.50119
upperneck -3.49153 -9.21225 11.2934
head 1.60906 -4.68632 3.84621
rclavicle 3.42904e-014 -2.78299e-015
rhumerus 71.2151 21.1968 0.251467
rradius 39.5512
rwrist -52.711
rhand -45.2621 -5.28308
rfingers 7.12502
rthumb -18.0359 -34.4668
lclavicle 3.42904e-014 -2.78299e-015
lhumerus 69.5749 -20.1585 -4.03065
lradius 31.4281
lwrist -0.711374
lhand -43.0403 11.8608
lfingers 7.12502
lthumb -15.8971 41.2283
rfemur -12.0385 -2.69608 24.3527
rtibia 43.8434
rfoot -24.4694 -13.975
rtoes 4.39288
lfemur -10.2296 -2.20467 -19.4166
ltibia 35.0385
lfoot -15.3037 -7.18212
ltoes -7.20453
163
root -0.250643 17.3508 5.78051 178.765 -11.2259 -179.237
lowerback 10.2424 -2.91059 -1.98108
upperback 3.64698 -4.36837 -0.185166
thorax -1.80534 -2.31387 1.42366
lowerneck -11.1265 -6.553 -3.40194
upperneck -3.29669 -9.18232 11.1672
head 1.64821 -4.6608 3.78483
rclavicle 6.75868e-015 3.18055e-015
rhumerus 71.3896 21.2779 0.80554
rradius 39.5059
rwrist -53.1358
rhand -45.2282 -5.40535
rfingers 7.12502
rthumb -18.0033 -34.5921
lclavicle 6.75868e-015 3.18055e-015
lhumerus 69.7407 -20.4429 -4.03394
lradius 31.2277
lwrist -0.904456
lhand -42.9601 12.147
lfingers 7.12502
lthumb -15.8199 41.5206
rfemur -11.5897 -1.83959 24.481
rtibia 43.0846
rfoot -24.4745 -14.7047
rtoes 4.6869
lfemur -9.59065 -2.29707 -19.4423
ltibia 33.7585
lfoot -14.8905 -7.06525
ltoes -7.37338
